<?xml version="1.0" standalone="no"?>
<!DOCTYPE svg PUBLIC "-//W3C//DTD SVG 20010904//EN"
 "http://www.w3.org/TR/2001/REC-SVG-20010904/DTD/svg10.dtd">
<svg version="1.0" xmlns="http://www.w3.org/2000/svg"
 width="688.000000pt" height="612.000000pt" viewBox="0 0 688.000000 612.000000"
 preserveAspectRatio="xMidYMid meet">

<g transform="translate(0.000000,612.000000) scale(0.100000,-0.100000)"
fill="#000000" stroke="none">
<path d="M3135 5215 c-117 -21 -245 -64 -335 -112 -47 -26 -109 -59 -137 -74
-187 -100 -378 -278 -467 -434 -77 -137 -144 -274 -150 -310 -4 -22 -17 -65
-27 -95 -18 -50 -32 -150 -46 -321 -5 -69 17 -249 43 -354 40 -155 166 -404
274 -540 121 -152 364 -345 496 -395 33 -12 75 -30 94 -40 42 -22 104 -42 225
-71 128 -32 386 -32 530 0 211 45 352 104 513 214 360 245 600 663 619 1082
18 379 -101 720 -344 986 -146 160 -265 250 -458 347 -77 38 -292 108 -375
121 -88 15 -369 12 -455 -4z m420 -134 c269 -38 488 -149 701 -354 113 -108
179 -197 247 -332 138 -277 163 -613 68 -933 l-21 -69 -124 4 c-68 2 -322 3
-565 3 l-441 0 0 259 0 259 39 35 c22 20 48 48 57 63 21 31 59 49 126 59 58 9
121 60 138 111 13 39 6 96 -13 112 -69 56 -215 -5 -231 -96 -4 -25 -23 -55
-55 -92 -27 -30 -51 -53 -54 -50 -3 3 -7 54 -9 115 l-3 109 81 83 c74 77 84
83 121 83 78 0 172 94 181 179 6 68 -17 91 -91 91 -44 0 -62 -6 -94 -29 -52
-38 -73 -68 -73 -106 0 -22 -14 -47 -52 -92 -29 -34 -56 -62 -60 -62 -5 -1 -8
55 -8 124 0 123 1 126 30 166 36 50 46 96 31 142 -33 98 -151 117 -207 32 -25
-38 -20 -110 10 -154 22 -33 24 -48 29 -183 3 -82 1 -148 -3 -148 -4 0 -30 26
-58 58 -40 47 -50 66 -54 106 -7 60 -31 95 -88 124 -117 59 -194 -2 -156 -124
24 -75 65 -108 147 -116 17 -2 54 -33 117 -101 l92 -98 0 -104 c0 -58 -4 -105
-9 -105 -5 0 -32 26 -60 57 -39 44 -51 65 -51 90 0 48 -46 95 -113 116 -69 22
-70 22 -106 -9 -71 -60 -7 -192 101 -209 38 -5 54 -17 140 -108 l98 -102 -3
-243 c-1 -133 -5 -242 -9 -242 -5 0 -150 0 -323 0 l-315 0 0 103 0 104 42 12
c57 18 139 102 161 165 45 132 -4 271 -88 250 -26 -6 -28 -5 -22 17 4 15 0 30
-10 41 -9 10 -12 18 -7 18 16 0 41 -35 36 -50 -3 -12 -2 -12 6 -2 5 7 10 39
11 70 1 45 -4 68 -26 111 -38 75 -70 96 -143 96 -48 0 -63 -4 -79 -22 -12 -12
-21 -30 -21 -40 0 -15 -2 -16 -10 -3 -6 10 -8 4 -4 -21 4 -21 2 -39 -4 -43
-13 -8 -4 -78 11 -88 6 -4 4 -13 -6 -23 -10 -9 -17 -23 -17 -32 0 -11 -6 -14
-21 -10 -12 3 -22 0 -26 -9 -3 -8 -8 -12 -13 -9 -10 6 -50 -33 -61 -62 -5 -13
-9 -57 -9 -96 0 -121 58 -215 154 -252 l46 -18 0 -103 0 -104 -122 -2 c-162
-3 -242 2 -249 14 -19 30 -60 228 -68 323 -8 99 -2 251 14 359 10 70 57 199
67 184 6 -9 7 -6 3 8 -7 28 41 138 57 128 7 -4 8 -3 4 4 -8 13 13 56 57 121
23 33 32 40 39 30 7 -10 8 -8 3 7 -3 13 1 26 10 34 13 11 14 10 9 -6 -4 -10
-3 -16 1 -11 5 4 9 17 10 30 2 12 8 21 14 20 6 -2 10 0 8 5 -5 16 41 62 57 56
9 -3 16 -1 16 6 0 6 -5 8 -11 5 -21 -13 13 30 39 49 14 11 22 14 18 8 -4 -7
-2 -12 3 -12 6 0 12 5 12 10 1 6 2 14 3 19 2 15 78 71 87 65 5 -3 8 0 7 8 -2
7 5 12 14 12 10 -1 16 1 14 5 -3 4 4 13 16 20 16 10 19 10 13 -1 -3 -7 1 -4
10 7 9 11 23 19 31 17 8 -2 17 4 20 13 4 9 13 14 21 11 8 -3 11 -1 8 4 -3 6 2
13 12 16 10 3 26 10 36 15 10 5 23 7 29 3 7 -4 8 -3 4 4 -6 11 5 15 30 11 4 0
10 4 13 9 11 16 143 55 246 73 132 23 233 23 390 0z m108 -932 c12 -8 -1 -31
-14 -24 -5 4 -9 18 -8 33 0 16 3 21 6 12 3 -8 10 -18 16 -21z m-1023 -31 c0
-5 -5 -6 -11 -2 -8 5 -8 1 0 -13 6 -11 9 -22 8 -25 -1 -2 8 7 21 20 16 17 22
19 22 8 0 -15 33 -56 45 -56 3 0 5 7 5 15 0 8 -4 15 -10 15 -5 0 -10 5 -10 11
0 8 5 8 15 -1 19 -16 19 -56 0 -64 -8 -3 -21 4 -28 15 -14 20 -15 20 -20 0 -3
-14 -1 -18 9 -14 14 5 20 -12 7 -20 -5 -2 -3 -3 2 -2 22 5 15 -64 -10 -101
l-25 -37 0 71 c0 39 -5 82 -12 96 -11 26 -40 42 -57 31 -6 -3 -14 3 -20 12 -6
11 -11 13 -11 5 0 -7 -4 -11 -9 -8 -4 3 -6 17 -4 30 7 32 33 23 34 -13 l2 -26
4 25 c3 14 9 30 15 37 10 13 38 7 38 -9z m127 -334 c2 -5 -9 -23 -24 -40 -16
-16 -40 -45 -55 -63 l-28 -33 1 74 c0 40 4 65 7 56 7 -17 9 -17 42 1 37 19 52
21 57 5z m-259 -30 c7 4 12 2 12 -3 0 -6 -9 -11 -20 -11 -11 0 -20 2 -20 4 0
2 -3 13 -6 23 -6 17 -6 17 8 -1 8 -10 20 -16 26 -12z m52 -44 c0 -5 -7 -7 -15
-4 -8 4 -15 8 -15 10 0 2 7 4 15 4 8 0 15 -4 15 -10z m717 -326 c-3 -3 -12 -4
-19 -1 -8 3 -5 6 6 6 11 1 17 -2 13 -5z m-933 -240 c3 -8 2 -12 -4 -9 -6 3
-10 10 -10 16 0 14 7 11 14 -7z m656 -24 c8 -5 11 -10 5 -10 -5 0 -17 5 -25
10 -8 5 -10 10 -5 10 6 0 17 -5 25 -10z m459 -16 c2 -2 -48 -4 -113 -4 -64 0
-115 4 -112 8 5 8 217 4 225 -4z m-992 -54 c-2 -11 -6 -22 -9 -26 -4 -3 -5 2
-3 13 2 10 4 21 4 26 1 4 3 7 6 7 3 0 4 -9 2 -20z m119 -172 l19 -23 -25 20
c-14 11 -27 21 -29 22 -2 2 0 3 6 3 5 0 18 -10 29 -22z m165 -115 c13 -16 12
-17 -3 -4 -17 13 -22 21 -14 21 2 0 10 -8 17 -17z m94 -41 c16 -14 25 -17 29
-9 2 7 5 4 5 -5 1 -21 0 -21 -33 -7 -14 7 -23 17 -19 22 4 6 0 8 -9 4 -9 -3
-24 1 -35 8 -17 13 -16 14 10 11 15 -1 38 -12 52 -24z m102 -49 c0 -8 -6 -9
-16 -4 -9 5 -23 11 -31 14 -8 3 -1 4 16 4 17 -1 31 -7 31 -14z m100 -32 c10
-6 13 -11 7 -11 -14 0 -84 29 -84 34 0 6 55 -10 77 -23z m50 -17 c-3 -3 -12
-4 -19 -1 -8 3 -5 6 6 6 11 1 17 -2 13 -5z m75 -14 c9 0 9 3 -2 10 -12 8 -11
10 6 10 12 0 21 -6 21 -15 0 -17 -9 -18 -56 -9 -17 4 -28 10 -25 15 3 5 13 5
24 -1 10 -5 25 -10 32 -10z m411 -7 c-7 -2 -19 -2 -25 0 -7 3 -2 5 12 5 14 0
19 -2 13 -5z"/>
<path d="M4007 4226 c-16 -17 -21 -38 -18 -82 2 -20 -1 -21 -68 -16 -78 5
-101 -5 -101 -43 0 -42 31 -51 143 -42 99 8 324 3 379 -9 19 -4 25 -11 22 -23
-4 -10 -1 -8 7 4 6 11 20 28 30 38 45 43 -1 82 -87 75 -42 -4 -54 -2 -50 8 8
22 -14 74 -37 86 -12 6 -62 13 -112 16 -77 4 -94 2 -108 -12z m197 -62 c15
-40 8 -44 -68 -44 -78 0 -92 7 -81 40 6 17 15 20 75 20 53 0 69 -4 74 -16z"/>
<path d="M3906 4008 c-8 -30 -8 -347 0 -387 4 -21 12 -31 24 -31 26 0 33 65
24 251 -6 132 -10 161 -24 174 -16 15 -18 14 -24 -7z"/>
<path d="M4068 3996 c-14 -10 -14 -31 -8 -176 10 -199 15 -222 44 -218 21 3
21 7 21 197 0 186 -1 194 -20 201 -12 5 -27 3 -37 -4z"/>
<path d="M4272 3998 c-8 -8 -12 -56 -12 -152 0 -187 7 -246 30 -246 10 0 21 7
24 16 3 9 6 101 6 205 0 175 -1 189 -18 189 -10 0 -23 -5 -30 -12z"/>
<path d="M3986 3908 c-8 -115 -8 -271 0 -292 3 -9 14 -16 24 -16 10 0 21 7 24
16 3 9 6 99 6 200 l0 184 -24 0 c-22 0 -23 -4 -30 -92z"/>
<path d="M4170 3993 c-1 -4 -2 -92 -3 -196 l-2 -187 33 0 c19 0 35 6 38 14 3
8 2 94 -3 193 l-8 178 -27 3 c-16 2 -28 0 -28 -5z"/>
<path d="M3999 3580 l-154 -5 -3 -29 c-2 -16 2 -32 10 -37 7 -5 129 -9 270 -9
241 0 258 1 267 19 7 13 6 24 -4 37 -11 16 -31 20 -123 24 -60 3 -178 3 -263
0z"/>
<path d="M1163 2090 c-12 -5 -30 -25 -40 -43 -25 -48 -65 -114 -151 -247 -70
-107 -76 -113 -89 -95 -7 11 -36 51 -64 89 -53 74 -149 237 -149 253 0 23 -38
43 -82 43 -60 0 -71 -14 -58 -76 5 -27 7 -96 5 -154 -2 -58 -5 -194 -7 -303
-3 -222 -4 -217 68 -217 55 0 86 32 82 86 -1 21 -1 102 0 179 3 128 4 138 18
120 31 -41 84 -132 114 -195 43 -89 79 -140 96 -133 7 3 40 59 73 125 33 66
71 134 84 152 13 17 31 45 40 61 15 28 16 20 17 -167 0 -192 1 -197 22 -212
28 -20 102 -21 117 -2 8 10 13 113 15 348 2 183 5 347 7 363 4 30 3 30 -46 32
-27 1 -60 -2 -72 -7z"/>
<path d="M2497 2087 c-25 -10 -27 -15 -21 -37 5 -14 9 -175 10 -359 1 -269 4
-335 15 -342 8 -5 35 -9 60 -9 73 0 79 13 76 161 l-2 124 131 3 131 3 7 -47
c3 -25 3 -85 -1 -132 -7 -100 1 -112 77 -112 87 0 83 -17 81 353 -2 252 1 330
11 346 22 35 0 56 -64 59 -30 2 -66 -1 -80 -7 l-25 -9 5 -151 5 -152 -139 3
-139 3 -1 148 c-1 117 -4 151 -15 158 -19 12 -87 10 -122 -4z"/>
<path d="M3865 2090 c-47 -6 -68 -37 -61 -88 8 -55 20 -62 107 -62 l80 0 -1
-292 c-1 -229 2 -293 12 -299 23 -15 114 -10 128 7 10 12 13 79 11 300 l-3
284 80 0 c90 0 106 10 117 73 5 27 3 44 -9 62 l-17 25 -202 -2 c-111 -2 -220
-5 -242 -8z"/>
<path d="M5850 2085 c-9 -11 -11 -25 -4 -48 5 -18 7 -170 4 -342 -4 -266 -3
-312 10 -326 13 -14 49 -18 227 -23 l211 -7 16 23 c20 29 21 102 1 122 -12 12
-40 14 -165 9 l-150 -6 0 76 0 77 121 -1 c75 0 125 4 134 11 23 19 29 87 11
115 -16 24 -20 25 -141 25 l-125 0 0 75 0 75 155 0 155 0 10 26 c14 37 12 87
-4 110 -13 18 -30 19 -234 22 -190 3 -220 1 -232 -13z"/>
<path d="M1435 2043 c4 -27 7 -187 6 -357 -1 -351 -2 -346 74 -346 81 0 78
-12 76 326 -1 164 3 321 8 349 13 69 5 75 -91 75 l-80 0 7 -47z"/>
<path d="M1959 2076 c-160 -57 -260 -236 -229 -407 34 -191 152 -306 326 -317
82 -5 128 7 194 51 49 33 100 77 100 87 0 4 -23 21 -51 39 -45 30 -52 32 -67
18 -47 -41 -125 -62 -193 -51 -56 9 -129 79 -147 141 -20 67 -25 165 -10 188
7 12 22 35 33 53 23 36 75 61 146 69 39 5 59 0 114 -26 37 -17 72 -31 78 -31
12 0 87 78 87 89 -1 13 -96 75 -142 93 -57 21 -184 24 -239 4z"/>
<path d="M3385 2078 c-97 -34 -155 -111 -155 -205 0 -99 55 -169 158 -199 31
-9 80 -23 107 -31 114 -33 130 -115 30 -153 -42 -16 -112 4 -179 50 l-55 39
-41 -45 c-52 -56 -50 -77 13 -120 88 -61 216 -86 298 -59 76 25 105 51 146
123 32 56 35 69 31 119 -5 52 -9 60 -54 103 -43 40 -64 51 -164 83 -146 46
-171 77 -111 138 40 40 96 40 170 -1 l55 -30 42 47 c24 27 43 51 44 55 0 12
-88 68 -131 83 -48 17 -160 18 -204 3z"/>
<path d="M4595 2065 c-87 -36 -157 -102 -197 -183 -30 -61 -33 -74 -33 -162 0
-87 3 -101 32 -160 57 -116 147 -186 268 -210 52 -9 70 -8 134 9 62 16 81 27
123 68 114 113 159 228 137 351 -22 115 -104 228 -204 279 -75 39 -179 42
-260 8z m171 -140 c143 -42 190 -243 87 -366 -36 -42 -74 -59 -133 -59 -65 0
-108 18 -147 63 -36 41 -53 91 -53 157 0 106 47 179 130 205 58 18 58 18 116
0z"/>
<path d="M5174 2075 c-3 -8 -1 -29 5 -46 13 -37 13 -291 2 -509 -8 -137 -7
-146 12 -162 22 -20 96 -24 128 -7 17 9 20 20 19 67 -1 31 -1 81 -1 110 l1 52
49 0 50 0 53 -101 c29 -55 61 -109 71 -120 34 -37 167 -21 167 20 0 4 -17 32
-39 62 -21 30 -50 77 -64 106 l-27 52 37 43 c58 69 87 141 80 199 -13 107 -77
191 -174 228 -47 18 -77 21 -209 21 -128 0 -156 -3 -160 -15z m332 -156 c42
-25 54 -47 54 -94 0 -76 -44 -105 -161 -105 l-71 0 6 31 c3 17 6 67 6 110 l0
79 66 0 c50 0 75 -5 100 -21z"/>
<path d="M1713 1134 c-49 -25 -44 -73 10 -93 40 -15 35 -35 -7 -28 -40 6 -49
1 -36 -24 22 -39 97 -32 120 12 17 31 3 54 -43 75 l-42 18 43 4 c33 2 42 7 42
21 0 11 -10 21 -22 25 -30 8 -28 8 -65 -10z"/>
<path d="M2570 1103 l0 -47 -44 43 c-24 24 -49 40 -55 37 -7 -4 -11 -41 -11
-92 0 -77 2 -84 20 -84 19 0 26 14 32 70 3 23 6 21 33 -22 17 -27 35 -48 41
-48 22 0 33 157 12 178 -21 21 -28 13 -28 -35z"/>
<path d="M3207 1143 c-5 -8 -50 -125 -60 -155 -10 -29 13 -32 42 -4 33 32 43
32 56 4 6 -13 21 -25 34 -26 21 -3 23 -1 17 25 -11 42 -57 141 -71 153 -7 6
-15 7 -18 3z m23 -106 c0 -5 -4 -5 -10 -2 -5 3 -10 14 -10 23 0 15 2 15 10 2
5 -8 10 -19 10 -23z"/>
<path d="M3352 1058 c2 -59 7 -93 15 -95 8 -3 13 11 15 39 2 24 8 43 13 42 6
0 24 -19 40 -42 46 -64 59 -53 63 51 3 82 2 87 -18 87 -17 0 -20 -6 -20 -47
l0 -48 -49 53 c-27 28 -52 52 -55 52 -4 0 -5 -41 -4 -92z"/>
<path d="M3570 1149 c-1 -2 -3 -46 -5 -96 l-4 -93 41 0 c52 0 108 51 108 98 0
33 -47 82 -78 82 -9 0 -27 3 -39 6 -13 4 -23 5 -23 3z m78 -61 c20 -20 15 -66
-8 -73 -30 -9 -40 2 -40 46 0 31 4 39 18 39 10 0 23 -5 30 -12z"/>
<path d="M4262 1122 c-42 -39 -48 -66 -23 -106 24 -38 69 -61 100 -51 24 7 57
51 66 88 6 22 1 33 -28 62 -43 43 -74 45 -115 7z m98 -54 c0 -25 -27 -58 -46
-58 -20 0 -46 44 -38 64 16 41 84 36 84 -6z"/>
<path d="M4467 1143 c-4 -3 -7 -46 -7 -95 0 -81 2 -88 20 -88 16 0 20 7 20 30
0 17 4 30 8 30 5 0 18 -13 30 -30 13 -16 31 -30 42 -30 25 0 25 6 0 37 -19 25
-19 25 1 53 26 34 18 65 -21 85 -30 15 -82 20 -93 8z m93 -62 c0 -13 -30 -22
-51 -16 -24 8 -25 32 -1 38 19 4 52 -9 52 -22z"/>
<path d="M4650 1053 c0 -83 2 -94 16 -89 9 3 38 6 65 6 42 0 49 3 49 20 0 17
-7 20 -40 20 -29 0 -40 4 -40 15 0 10 11 15 35 15 28 0 35 4 35 20 0 16 -7 20
-35 20 -24 0 -35 5 -35 15 0 11 11 15 40 15 31 0 40 4 40 18 0 14 -10 17 -65
18 l-65 2 0 -95z"/>
<path d="M1875 1126 c-17 -12 -18 -20 -9 -82 9 -69 9 -69 46 -78 48 -12 97 6
78 29 -7 9 -30 15 -54 15 -38 1 -40 2 -22 15 11 8 30 15 43 15 40 0 27 28 -14
32 -53 4 -54 26 -1 30 31 2 44 8 46 21 3 14 -4 17 -45 17 -27 0 -58 -6 -68
-14z"/>
<path d="M2085 1128 c-29 -16 -55 -50 -55 -74 0 -54 87 -109 130 -82 12 8 19
21 18 33 -3 17 -9 20 -50 17 -47 -4 -48 -3 -48 26 0 40 20 55 64 46 40 -7 46
4 18 29 -21 19 -48 21 -77 5z"/>
<path d="M2261 1114 c-50 -41 -42 -97 19 -138 36 -23 65 -20 102 12 23 22 31
37 31 62 0 25 -8 40 -31 62 -41 36 -80 36 -121 2z m95 -35 c20 -22 13 -43 -19
-63 -33 -21 -70 27 -53 70 8 21 50 17 72 -7z"/>
<path d="M2660 1050 l0 -90 41 0 c33 0 47 6 75 34 43 43 44 77 5 117 -24 24
-38 29 -75 29 l-46 0 0 -90z m82 38 c36 -30 22 -78 -23 -78 -16 0 -19 7 -19
45 0 47 12 57 42 33z"/>
<path d="M2960 1050 c0 -83 1 -90 20 -90 17 0 20 7 20 41 0 36 2 40 23 37 17
-2 23 -11 27 -38 3 -22 11 -36 22 -38 13 -3 18 8 23 50 9 78 3 122 -18 126
-13 3 -17 -4 -17 -27 0 -29 -3 -31 -35 -31 -32 0 -35 2 -35 30 0 20 -5 30 -15
30 -12 0 -15 -17 -15 -90z"/>
<path d="M3884 1115 c-21 -32 -13 -51 31 -69 51 -22 46 -40 -10 -34 -52 6 -57
-2 -16 -31 37 -26 65 -27 91 -1 33 33 26 67 -20 90 -22 11 -40 24 -40 29 0 5
18 7 40 4 22 -3 40 -1 40 4 0 19 -25 33 -62 33 -29 0 -41 -6 -54 -25z"/>
<path d="M4050 1126 c0 -8 11 -17 24 -20 23 -6 24 -9 19 -64 -4 -46 -2 -60 12
-72 24 -20 35 1 35 72 0 51 2 57 22 60 13 2 24 11 26 21 3 15 -5 17 -67 17
-54 0 -71 -3 -71 -14z"/>
<path d="M2842 1058 c-20 -20 -13 -28 26 -28 45 0 56 8 41 27 -14 16 -51 17
-67 1z"/>
</g>
</svg>
